<?xml version="1.0" standalone="no"?>
<!DOCTYPE svg PUBLIC "-//W3C//DTD SVG 20010904//EN"
 "http://www.w3.org/TR/2001/REC-SVG-20010904/DTD/svg10.dtd">
<svg version="1.0" xmlns="http://www.w3.org/2000/svg"
 width="260.000000pt" height="260.000000pt" viewBox="0 0 260.000000 260.000000"
 preserveAspectRatio="xMidYMid meet">
<metadata>
Created by potrace 1.11, written by Peter Selinger 2001-2013
</metadata>
<g transform="translate(0.000000,260.000000) scale(0.100000,-0.100000)"
fill="#000000" stroke="none">
<path d="M0 1300 l0 -1300 1300 0 1300 0 0 1300 0 1300 -1300 0 -1300 0 0
-1300z m1814 816 c-47 -81 -84 -149 -82 -150 1 -1 29 -15 61 -30 204 -98 168
-398 -53 -445 -28 -6 -130 -11 -226 -11 -146 0 -176 2 -180 15 -4 9 39 91 102
198 59 100 117 198 128 217 l21 35 -23 -15 c-12 -8 -202 -136 -421 -285 l-398
-270 683 -3 c537 -2 684 -5 684 -15 0 -6 -27 -29 -59 -50 -33 -21 -106 -70
-162 -109 -89 -61 -99 -72 -83 -81 132 -69 162 -264 58 -371 -70 -72 -62 -70
-434 -76 l-335 -5 -194 -133 c-107 -72 -198 -132 -203 -132 -18 0 -5 30 62
143 39 66 70 121 70 123 0 2 -27 4 -60 4 l-60 0 2 238 3 237 258 3 c217 2 257
0 257 -12 0 -8 -50 -99 -110 -202 -61 -103 -109 -189 -107 -190 2 -2 175 112
385 254 l382 257 -685 3 c-538 2 -685 5 -685 15 1 6 68 57 150 112 l150 100 0
238 0 237 353 0 352 0 235 159 c129 88 239 156 243 152 4 -4 -31 -74 -79 -155z"/>
<path d="M820 1704 l0 -145 203 137 c111 75 206 141 211 145 6 5 -85 9 -202 9
l-212 0 0 -146z"/>
<path d="M1653 1838 c-13 -17 -143 -238 -143 -244 0 -8 176 -4 211 6 76 21
116 101 86 173 -26 60 -125 102 -154 65z"/>
<path d="M820 910 l0 -130 39 0 40 0 64 108 c35 59 70 117 76 130 l12 22 -116
0 -115 0 0 -130z"/>
<path d="M1466 913 l-190 -128 222 -3 c241 -3 264 1 298 53 54 83 3 184 -101
200 -38 6 -47 2 -229 -122z"/>
</g>
</svg>
